<svg xmlns="http://www.w3.org/2000/svg" viewBox="0 0 100 100" width="100" height="100">
  <!-- 外框 - 古朴铜镜边缘 -->
  <circle cx="50" cy="50" r="45" fill="#d4b886" stroke="#8b5a2b" stroke-width="3" />
  <circle cx="50" cy="50" r="42" fill="#d9c6a3" stroke="#8b5a2b" stroke-width="1" stroke-dasharray="2,2" />
  
  <!-- 装饰性花纹 - 云纹 -->
  <path d="M15,50 C15,30 30,15 50,15 C70,15 85,30 85,50 C85,70 70,85 50,85 C30,85 15,70 15,50 Z" 
        fill="none" stroke="#8b5a2b" stroke-width="1.5" />
  
  <!-- 四个方向的装饰纹 -->
  <path d="M50,10 L50,18 M50,82 L50,90" stroke="#8b2323" stroke-width="1.5" />
  <path d="M10,50 L18,50 M82,50 L90,50" stroke="#8b2323" stroke-width="1.5" />
  
  <!-- 镜面 - 半阴半阳效果 -->
  <circle cx="50" cy="50" r="35" fill="url(#mirrorGradient)" stroke="#8b5a2b" stroke-width="2" />
  
  <!-- 镜面渐变 - 象征风月宝鉴的双面性 -->
  <defs>
    <linearGradient id="mirrorGradient" x1="0%" y1="0%" x2="100%" y2="100%">
      <stop offset="0%" stop-color="#f5e8d3" stop-opacity="0.8" />
      <stop offset="50%" stop-color="#2c2622" stop-opacity="0.7" />
      <stop offset="100%" stop-color="#8b2323" stop-opacity="0.6" />
    </linearGradient>
    
    <!-- 月形图案滤镜 -->
    <filter id="glow" x="-20%" y="-20%" width="140%" height="140%">
      <feGaussianBlur stdDeviation="1" result="blur" />
      <feComposite in="SourceGraphic" in2="blur" operator="over" />
    </filter>
  </defs>
  
  <!-- 月形图案 - 象征"月" -->
  <path d="M50,30 C58,30 65,37 65,45 C65,53 58,60 50,60 C42,60 35,53 35,45 C35,37 42,30 50,30 Z" 
        fill="none" stroke="#f5e8d3" stroke-width="1.5" filter="url(#glow)" />
  
  <!-- 风纹 - 象征"风" -->
  <path d="M30,50 Q38,45 45,50 Q52,55 60,50" 
        fill="none" stroke="#8b2323" stroke-width="1.2" stroke-linecap="round" />
  
  <!-- 中心圆点 -->
  <circle cx="50" cy="50" r="2" fill="#8b2323" />
  
  <!-- 点缀的光斑 -->
  <circle cx="65" cy="35" r="1" fill="#f5e8d3" opacity="0.8" />
  <circle cx="35" cy="65" r="0.8" fill="#f5e8d3" opacity="0.6" />
</svg>
    
